# xmcd CD database file
# Generated: ÐÔ Á×Ç 8 01:27:06 2003 by KSCD
# 
# Track frame offsets:
#       150
#       13455
#       24553
#       36795
#       47513
#       56613
#       68135
#       76608
#       88963
#       97163
#       110250
#       120360
#
# Disc length: 1779 seconds
#
# Revision: 1
# Processed by: cddbd v1.4PL0 Copyright (c) Steve Scherf et al.
# Submitted via: Kscd 1.3.3
#
DISCID=9506f10c
DTITLE=Jerry Lee Lewis - Greatest Hits
DYEAR=1900
DGENRE=
TTITLE0=Whole Lotta Shakin' Going On
TTITLE1=Little Queenie
TTITLE2=Breathless
TTITLE3=Teen Age Letter
TTITLE4=Lewis Boogie
TTITLE5=I Can't Seem To Say Goodbye
TTITLE6=Great Balls Of Fire
TTITLE7=Crazy Arms
TTITLE8=End Of The Road
TTITLE9=It'll Be Me
TTITLE10=Move On Down The Line
TTITLE11=You Win Again
EXTD=
EXTT0=
EXTT1=
EXTT2=
EXTT3=
EXTT4=
EXTT5=
EXTT6=
EXTT7=
EXTT8=
EXTT9=
EXTT10=
EXTT11=
PLAYORDER=
